<?xml version="1.0" encoding="UTF-8" standalone="no"?><!DOCTYPE svg PUBLIC "-//W3C//DTD SVG 1.1//EN" "http://www.w3.org/Graphics/SVG/1.1/DTD/svg11.dtd"><svg xmlns="http://www.w3.org/2000/svg" xmlns:xlink="http://www.w3.org/1999/xlink" version="1.1" width="600" height="600" viewBox="0 0 600 600">
<desc>Created with SVGMaker Editor 3.0.0</desc>
<defs>
</defs>
<g transform="matrix(0.6 0 0 0.6 308.57897 306.6289)" clip-path="url(#CLIPPATH_1081)">
<clipPath id="CLIPPATH_1081">
<rect transform="matrix(1 0 0 1 0 0)" x="-500" y="-500" width="1000" height="1000"/>
</clipPath>
<rect transform="translate(0,0)" style="fill: rgb(255,255,255); fill-opacity: 0" x="-500" y="-500" width="1000" height="1000"/>
</g>
<g transform="matrix(4 0 0 4 299.83599 298.95578)" clip-path="url(#CLIPPATH_1082)">
<clipPath id="CLIPPATH_1082">
<rect transform="matrix(0.25 0 0 0.25 0.2935 -0.224)" x="-500" y="-500" width="1000" height="1000"/>
</clipPath>
<path transform=" translate(0.0005, 0)" style="fill: rgb(63,59,75); fill-opacity: 0.2" stroke-linecap="round" d="M 0 72.742 C 39.879 72.742 72.207 40.174 72.207 0.001 C 72.207 -40.173 39.879 -72.742 0 -72.742 C -39.879 -72.742 -72.208 -40.173 -72.208 0.001 C -72.208 40.174 -39.879 72.742 0 72.742 C 0 72.742 0 72.742 0 72.742 Z"/>
</g>
<g transform="matrix(4 0 0 4 301.51798 430.0378)" clip-path="url(#CLIPPATH_1083)">
<clipPath id="CLIPPATH_1083">
<rect transform="matrix(0.25 0 0 0.25 -0.127 -32.9945)" x="-500" y="-500" width="1000" height="1000"/>
</clipPath>
<path transform=" translate(0, 0.0005)" style="fill: rgb(65,40,163); fill-opacity: 0.79" stroke-linecap="round" d="M 37.648 -9.927 C 37.648 -9.927 -37.648 -9.927 -37.648 -9.927 C -37.648 -9.927 -37.648 9.926 -37.648 9.926 C -37.648 9.926 37.648 9.926 37.648 9.926 C 37.648 9.926 37.648 -9.927 37.648 -9.927 C 37.648 -9.927 37.648 -9.927 37.648 -9.927 Z"/>
</g>
<g transform="matrix(4 0 0 4 309.32598 492.30778)" clip-path="url(#CLIPPATH_1084)">
<clipPath id="CLIPPATH_1084">
<rect transform="matrix(0.25 0 0 0.25 -2.079 -48.562)" x="-500" y="-500" width="1000" height="1000"/>
</clipPath>
<path transform=" translate(0, 0)" style="fill: rgb(251,142,0)" stroke-linecap="round" d="M 0 12.696 C 6.96 12.696 12.602 7.012 12.602 0.001 C 12.602 -7.011 6.96 -12.696 0 -12.696 C -6.96 -12.696 -12.602 -7.011 -12.602 0.001 C -12.602 7.012 -6.96 12.696 0 12.696 C 0 12.696 0 12.696 0 12.696 Z"/>
</g>
<g transform="matrix(4 0 0 4 300.16198 492.3198)" clip-path="url(#CLIPPATH_1085)">
<clipPath id="CLIPPATH_1085">
<rect transform="matrix(0.25 0 0 0.25 0.212 -48.565)" x="-500" y="-500" width="1000" height="1000"/>
</clipPath>
<path transform=" translate(0, 0)" style="fill: rgb(251,142,0)" stroke-linecap="round" d="M -2.413 12.692 C -2.413 12.692 2.413 12.692 2.413 12.692 C 2.413 12.692 2.413 -12.692 2.413 -12.692 C 2.413 -12.692 -2.413 -12.692 -2.413 -12.692 C -2.413 -12.692 -2.413 12.692 -2.413 12.692 C -2.413 12.692 -2.413 12.692 -2.413 12.692 Z"/>
</g>
<g transform="matrix(4 0 0 4 290.53399 492.30778)" clip-path="url(#CLIPPATH_1086)">
<clipPath id="CLIPPATH_1086">
<rect transform="matrix(0.25 0 0 0.25 2.619 -48.562)" x="-500" y="-500" width="1000" height="1000"/>
</clipPath>
<path transform=" translate(0, 0)" style="fill: rgb(255,172,45)" stroke-linecap="round" d="M 0 12.695 C 6.96 12.695 12.602 7.011 12.602 0 C 12.602 -7.012 6.96 -12.695 0 -12.695 C -6.96 -12.695 -12.602 -7.012 -12.602 0 C -12.602 7.011 -6.96 12.695 0 12.695 C 0 12.695 0 12.695 0 12.695 Z"/>
</g>
<g transform="matrix(4 0 0 4 290.53399 484.86378)" clip-path="url(#CLIPPATH_1087)">
<clipPath id="CLIPPATH_1087">
<rect transform="matrix(0.25 0 0 0.25 2.619 -46.701)" x="-500" y="-500" width="1000" height="1000"/>
</clipPath>
<path transform=" translate(0, 0)" style="fill: rgb(54,36,128)" stroke-linecap="round" d="M 0 3.949 C 2.165 3.949 3.92 2.18 3.92 -0.001 C 3.92 -2.181 2.165 -3.949 0 -3.949 C -2.165 -3.949 -3.92 -2.181 -3.92 -0.001 C -3.92 2.18 -2.165 3.949 0 3.949 C 0 3.949 0 3.949 0 3.949 Z"/>
</g>
<g transform="matrix(4 0 0 4 290.53399 497.22178)" clip-path="url(#CLIPPATH_1088)">
<clipPath id="CLIPPATH_1088">
<rect transform="matrix(0.25 0 0 0.25 2.619 -49.7905)" x="-500" y="-500" width="1000" height="1000"/>
</clipPath>
<path transform=" translate(-56.381, -111.7905)" style="stroke: rgb(54,36,128); stroke-width: 4.382; stroke-linecap: round; stroke-miterlimit: 10; fill: rgb(0,0,0); fill-opacity: 0" stroke-linecap="round" d="M 56.381 114.88 C 56.381 114.88 56.381 108.701 56.381 108.701"/>
</g>
<g transform="matrix(4 0 0 4 169.16199 116.8545)" clip-path="url(#CLIPPATH_1089)">
<clipPath id="CLIPPATH_1089">
<rect transform="matrix(0.25 0 0 0.25 32.962 45.30132)" x="-500" y="-500" width="1000" height="1000"/>
</clipPath>
<path transform=" translate(0, 0.00032)" style="fill: rgb(109,73,255)" stroke-linecap="round" d="M 14.665 -6.409 C 14.665 -6.409 0.705 -15.441 0.705 -15.441 C -4.135 -18.572 -10.558 -15.551 -11.292 -9.806 C -11.292 -9.806 -14.671 16.699 -14.671 16.699 C -14.671 16.699 14.671 -6.409 14.671 -6.409 C 14.671 -6.409 14.665 -6.409 14.665 -6.409 C 14.665 -6.409 14.665 -6.409 14.665 -6.409 Z"/>
</g>
<g transform="matrix(4 0 0 4 161.56599 120.83297)" clip-path="url(#CLIPPATH_1090)">
<clipPath id="CLIPPATH_1090">
<rect transform="matrix(0.25 0 0 0.25 34.861 44.3067)" x="-500" y="-500" width="1000" height="1000"/>
</clipPath>
<path transform=" translate(0, -0.2283)" style="fill: rgb(73,45,197)" stroke-linecap="round" d="M -1.251 -5.553 C -1.251 -5.553 5.525 -1.163 5.525 -1.163 C 5.525 -1.163 -5.525 6.318 -5.525 6.318 C -5.525 6.318 -4.187 -4.178 -4.187 -4.178 C -4.007 -5.585 -2.436 -6.318 -1.258 -5.553 C -1.258 -5.553 -1.251 -5.553 -1.251 -5.553 C -1.251 -5.553 -1.251 -5.553 -1.251 -5.553 Z"/>
</g>
<g transform="matrix(4 0 0 4 438.06199 116.8545)" clip-path="url(#CLIPPATH_1091)">
<clipPath id="CLIPPATH_1091">
<rect transform="matrix(0.25 0 0 0.25 -34.263 45.30132)" x="-500" y="-500" width="1000" height="1000"/>
</clipPath>
<path transform=" translate(0, 0.00032)" style="fill: rgb(109,73,255)" stroke-linecap="round" d="M -14.665 -6.409 C -14.665 -6.409 -0.704 -15.441 -0.704 -15.441 C 4.136 -18.572 10.559 -15.551 11.293 -9.806 C 11.293 -9.806 14.672 16.699 14.672 16.699 C 14.672 16.699 -14.672 -6.409 -14.672 -6.409 C -14.672 -6.409 -14.665 -6.409 -14.665 -6.409 C -14.665 -6.409 -14.665 -6.409 -14.665 -6.409 Z"/>
</g>
<g transform="matrix(4 0 0 4 441.438 120.83297)" clip-path="url(#CLIPPATH_1092)">
<clipPath id="CLIPPATH_1092">
<rect transform="matrix(0.25 0 0 0.25 -35.107 44.3067)" x="-500" y="-500" width="1000" height="1000"/>
</clipPath>
<path transform=" translate(0, -0.2283)" style="fill: rgb(73,45,197)" stroke-linecap="round" d="M 1.252 -5.553 C 1.252 -5.553 -5.525 -1.163 -5.525 -1.163 C -5.525 -1.163 5.525 6.318 5.525 6.318 C 5.525 6.318 4.187 -4.178 4.187 -4.178 C 4.007 -5.585 2.436 -6.318 1.258 -5.553 C 1.258 -5.553 1.252 -5.553 1.252 -5.553 C 1.252 -5.553 1.252 -5.553 1.252 -5.553 Z"/>
</g>
<g transform="matrix(4 0 0 4 301.50199 259.36181)" clip-path="url(#CLIPPATH_1093)">
<clipPath id="CLIPPATH_1093">
<rect transform="matrix(0.25 0 0 0.25 -0.123 9.6745)" x="-500" y="-500" width="1000" height="1000"/>
</clipPath>
<path transform=" translate(0, 0)" style="fill: rgb(109,73,255)" stroke-linecap="round" d="M 58.447 8.85 C 58.447 35.9 26.581 45.542 0 45.542 C -23.364 45.542 -58.447 35.9 -58.447 8.85 C -58.447 -18.2 -32.278 -45.542 0 -45.542 C 32.277 -45.542 58.447 -18.2 58.447 8.85 C 58.447 8.85 58.447 8.85 58.447 8.85 Z"/>
</g>
<g transform="matrix(4 0 0 4 264.99398 336.2298)" clip-path="url(#CLIPPATH_1094)">
<clipPath id="CLIPPATH_1094">
<rect transform="matrix(0.25 0 0 0.25 9.004 -9.5425)" x="-500" y="-500" width="1000" height="1000"/>
</clipPath>
<path transform=" translate(0, 0)" style="stroke: rgb(255,255,255); stroke-width: 1.935; stroke-linecap: round; stroke-miterlimit: 10; fill: rgb(255,255,255)" stroke-linecap="round" d="M -1.931 -1.945 C 0.206 -1.945 1.931 -0.201 1.931 1.945"/>
</g>
<g transform="matrix(4 0 0 4 280.442 336.2298)" clip-path="url(#CLIPPATH_1095)">
<clipPath id="CLIPPATH_1095">
<rect transform="matrix(0.25 0 0 0.25 5.142 -9.5425)" x="-500" y="-500" width="1000" height="1000"/>
</clipPath>
<path transform=" translate(0, 0)" style="stroke: rgb(255,255,255); stroke-width: 1.935; stroke-linecap: round; stroke-miterlimit: 10; fill: rgb(255,255,255)" stroke-linecap="round" d="M 1.931 -1.945 C -0.206 -1.945 -1.931 -0.201 -1.931 1.945"/>
</g>
<g transform="matrix(4 0 0 4 172.01781 267.47879)" clip-path="url(#CLIPPATH_1096)">
<clipPath id="CLIPPATH_1096">
<rect transform="matrix(0.25 0 0 0.25 32.24804 7.64525)" x="-500" y="-500" width="1000" height="1000"/>
</clipPath>
<path transform=" translate(0.0003, 0)" style="fill: rgb(255,255,255)" stroke-linecap="round" d="M 17.499 7.603 C 21.199 -1.038 16.363 -11.447 6.698 -15.646 C -2.966 -19.845 -13.8 -16.244 -17.5 -7.603 C -21.199 1.038 -16.364 11.447 -6.699 15.646 C 2.966 19.845 13.8 16.244 17.499 7.603 C 17.499 7.603 17.499 7.603 17.499 7.603 Z"/>
</g>
<g transform="matrix(4 0 0 4 169.39574 238.19237)" clip-path="url(#CLIPPATH_1097)">
<clipPath id="CLIPPATH_1097">
<rect transform="matrix(0.25 0 0 0.25 32.90356 14.96685)" x="-500" y="-500" width="1000" height="1000"/>
</clipPath>
<path transform=" translate(-1.03019, -2.1484)" style="fill: rgb(54,35,128)" stroke-linecap="round" d="M 19.756 6.331 C 14.446 -6.669 -4.978 -11.635 -13.712 0.334 C -16.435 4.133 -17.098 9.048 -16.042 13.658 C -19.756 6.642 -16.95 -2.37 -10.262 -6.468 C 0.66 -13.658 17.587 -6.721 19.756 6.338 C 19.756 6.338 19.756 6.331 19.756 6.331 C 19.756 6.331 19.756 6.331 19.756 6.331 Z"/>
</g>
<g transform="matrix(4 0 0 4 389.3198 267.48578)" clip-path="url(#CLIPPATH_1098)">
<clipPath id="CLIPPATH_1098">
<rect transform="matrix(0.25 0 0 0.25 -22.07746 7.6435)" x="-500" y="-500" width="1000" height="1000"/>
</clipPath>
<path transform=" translate(0.0003, 0)" style="fill: rgb(255,255,255)" stroke-linecap="round" d="M 6.698 15.646 C 16.363 11.447 21.199 1.038 17.499 -7.603 C 13.799 -16.244 2.966 -19.845 -6.699 -15.646 C -16.364 -11.447 -21.199 -1.038 -17.5 7.603 C -13.8 16.244 -2.967 19.845 6.698 15.646 C 6.698 15.646 6.698 15.646 6.698 15.646 Z"/>
</g>
<g transform="matrix(4 0 0 4 391.95224 238.17291)" clip-path="url(#CLIPPATH_1099)">
<clipPath id="CLIPPATH_1099">
<rect transform="matrix(0.25 0 0 0.25 -22.73556 14.97172)" x="-500" y="-500" width="1000" height="1000"/>
</clipPath>
<path transform=" translate(1.03019, -2.14678)" style="fill: rgb(54,35,128)" stroke-linecap="round" d="M -19.756 6.335 C -17.587 -6.723 -0.66 -13.655 10.262 -6.471 C 16.95 -2.374 19.756 6.646 16.042 13.655 C 17.104 9.052 16.435 4.13 13.712 0.33 C 4.978 -11.639 -14.446 -6.671 -19.756 6.329 C -19.756 6.329 -19.756 6.335 -19.756 6.335 C -19.756 6.335 -19.756 6.335 -19.756 6.335 Z"/>
</g>
<g transform="matrix(4 0 0 4 174.52098 267.78779)" clip-path="url(#CLIPPATH_1100)">
<clipPath id="CLIPPATH_1100">
<rect transform="matrix(0.25 0 0 0.25 31.62225 7.568)" x="-500" y="-500" width="1000" height="1000"/>
</clipPath>
<path transform=" translate(0, 0)" style="fill: rgb(65,40,163)" stroke-linecap="round" d="M 0 10.471 C 3.523 10.471 6.378 5.784 6.378 0.001 C 6.378 -5.782 3.523 -10.471 0 -10.471 C -3.523 -10.471 -6.378 -5.782 -6.378 0.001 C -6.378 5.784 -3.523 10.471 0 10.471 C 0 10.471 0 10.471 0 10.471 Z"/>
</g>
<g transform="matrix(4 0 0 4 190.07299 240.45179)" clip-path="url(#CLIPPATH_1101)">
<clipPath id="CLIPPATH_1101">
<rect transform="matrix(0.25 0 0 0.25 27.73425 14.402)" x="-500" y="-500" width="1000" height="1000"/>
</clipPath>
<path transform=" translate(0, 0)" style="fill: rgb(255,255,255); opacity: 0.5" stroke-linecap="round" d="M 0 2.425 C 1.329 2.425 2.407 1.339 2.407 0 C 2.407 -1.339 1.329 -2.425 0 -2.425 C -1.329 -2.425 -2.407 -1.339 -2.407 0 C -2.407 1.339 -1.329 2.425 0 2.425 C 0 2.425 0 2.425 0 2.425 Z"/>
</g>
<g transform="matrix(4 0 0 4 394.485 267.78779)" clip-path="url(#CLIPPATH_1102)">
<clipPath id="CLIPPATH_1102">
<rect transform="matrix(0.25 0 0 0.25 -23.36875 7.568)" x="-500" y="-500" width="1000" height="1000"/>
</clipPath>
<path transform=" translate(0, 0)" style="fill: rgb(65,40,163)" stroke-linecap="round" d="M 0 10.471 C 3.523 10.471 6.378 5.784 6.378 0.001 C 6.378 -5.782 3.523 -10.471 0 -10.471 C -3.523 -10.471 -6.378 -5.782 -6.378 0.001 C -6.378 5.784 -3.523 10.471 0 10.471 C 0 10.471 0 10.471 0 10.471 Z"/>
</g>
<g transform="matrix(4 0 0 4 410.06098 240.45179)" clip-path="url(#CLIPPATH_1103)">
<clipPath id="CLIPPATH_1103">
<rect transform="matrix(0.25 0 0 0.25 -27.26275 14.402)" x="-500" y="-500" width="1000" height="1000"/>
</clipPath>
<path transform=" translate(0, 0)" style="fill: rgb(255,255,255); opacity: 0.5" stroke-linecap="round" d="M 0 2.425 C 1.329 2.425 2.407 1.339 2.407 0 C 2.407 -1.339 1.329 -2.425 0 -2.425 C -1.329 -2.425 -2.407 -1.339 -2.407 0 C -2.407 1.339 -1.329 2.425 0 2.425 C 0 2.425 0 2.425 0 2.425 Z"/>
</g>
</svg>